<svg width="116" height="28" viewBox="0 0 116 28" fill="none" xmlns="http://www.w3.org/2000/svg">
  <rect width="116" height="28" rx="14" fill="#0B4FA8"/>
  <circle cx="20" cy="14" r="7" fill="#7FD3FF"/>
  <path d="M34 18.5V9.5H37.5L40.2 14.6L42.9 9.5H46.4V18.5H43.8V13.6L41.5 17.7H38.9L36.6 13.6V18.5H34Z" fill="white"/>
  <path d="M49.2 18.5V9.5H52V18.5H49.2Z" fill="white"/>
  <path d="M54.9 18.5V9.5H57.7V16.1H62.3V18.5H54.9Z" fill="white"/>
  <path d="M64.8 18.5V9.5H67.6V16.1H72.2V18.5H64.8Z" fill="white"/>
  <path d="M74.7 18.5V9.5H82.1V11.9H77.5V13H81.7V15.2H77.5V16.1H82.3V18.5H74.7Z" fill="white"/>
  <path d="M84.5 18.5V9.5H89.3C91.6 9.5 92.8 10.8 92.8 12.6C92.8 13.9 92 14.9 90.8 15.2L93.1 18.5H89.8L87.9 15.6H87.3V18.5H84.5ZM87.3 13.4H89C89.6 13.4 90 13 90 12.5C90 11.9 89.6 11.6 89 11.6H87.3V13.4Z" fill="white"/>
</svg>

